<?xml version="1.0" encoding="utf-8"?>
<!-- Generator: Adobe Illustrator 24.0.2, SVG Export Plug-In . SVG Version: 6.00 Build 0)  -->
<svg version="1.1" id="Layer_1" xmlns="http://www.w3.org/2000/svg" xmlns:xlink="http://www.w3.org/1999/xlink" x="0px" y="0px"
	 viewBox="0 0 400 400" style="enable-background:new 0 0 400 400;" xml:space="preserve">
<style type="text/css">
	.st0{fill:#303C5E;}
	.st1{fill:#D9EBF4;}
	.st2{fill:#FF482F;}
</style>
<path class="st0" d="M375.18,202.21c0,94.96-76.98,171.95-171.96,171.95c-94.97,0-171.95-76.99-171.95-171.95
	S108.26,30.26,203.23,30.26C298.2,30.26,375.18,107.25,375.18,202.21z"/>
<g>
	<path class="st1" d="M126.55,251.27l2.41,76.63h20.2c0.77-25.99-0.02-76.63-0.02-76.63S134.88,251,126.55,251.27z"/>
</g>
<g>
	<path class="st1" d="M152.43,251.27l1.22,76.63h10.3c0.4-25.99-0.01-76.63-0.01-76.63S156.68,251,152.43,251.27z"/>
</g>
<path class="st1" d="M154.89,150.78c3.86,9.36,0.85,19.47-6.72,22.61c-7.58,3.12-16.86-1.95-20.71-11.29
	c-3.86-9.37-0.85-19.49,6.72-22.62C141.78,136.37,151.03,141.41,154.89,150.78z"/>
<g>
	<polygon class="st1" points="149.33,225.32 149.34,225.09 149.33,225.24 149.28,225.03 	"/>
	<path class="st1" d="M180.96,140.61l-6.37,28.5l-21.2,6.04c-0.34,0.1-0.64,0.28-0.96,0.43l4.36,5.91l-4.28,4.28l2.74,5.94
		l-5.89,33.71l0.02,0.14l-0.03-0.1l-0.02,0.1l0-0.13l-12.14-32.19l1.59-6.31l-5.04-3.49l3.26-5.57c-2.7,0.31-12.42,1.91-13.13,2.07
		c-0.99,0.22-3,3.91-3.31,4.52l-16.57,33.1c-4.05,17.54-4.47,25.85-6.88,39.23c6.86,1.15,13.75,2.06,20.67,2.72
		c1.04-11.01,3.1-27.36,3.28-33.98l1.86-4.3c0.69,12.27,1.46,24.56,2.33,36.82c0.01,0.15,0.06,0.29,0.08,0.45
		c14.26-1.17,28.53-2.32,42.78-3.49c0-0.15,0.03-0.28,0.03-0.44c-1.95-21.34-4.23-42.65-6.73-63.95l11.27-2.44l11.43-2.47l0.59-0.12
		l6.77-6.73l0.01-0.03l0.01-0.06l0.07-0.23l0.27-0.93l0.55-1.87l8.76-29.9C194.48,143.87,187.74,142.14,180.96,140.61z"/>
</g>
<polygon class="st1" points="156.88,173.88 165.26,180.19 148.22,188.18 129.32,186.8 134.67,177.97 "/>
<polygon class="st1" points="155.94,184.57 159.63,224.6 141.8,226.89 124.59,221.23 134.33,182.49 "/>
<g>
	<path class="st1" d="M255.67,251.27l2.41,76.63h20.2c0.77-25.99-0.02-76.63-0.02-76.63S264,251,255.67,251.27z"/>
</g>
<g>
	<path class="st1" d="M241.01,251.27l1.23,76.63h10.3c0.4-25.99-0.01-76.63-0.01-76.63S245.26,251,241.01,251.27z"/>
</g>
<path class="st1" d="M250.24,150.78c-3.85,9.36-0.85,19.47,6.73,22.61c7.58,3.12,16.85-1.95,20.71-11.29
	c3.87-9.37,0.85-19.49-6.72-22.62C263.37,136.37,254.1,141.41,250.24,150.78z"/>
<path class="st1" d="M304.02,212.83C304.02,212.6,304.02,212.63,304.02,212.83L304.02,212.83z"/>
<g>
	<polygon class="st1" points="255.18,225.14 255.17,225.18 255.17,225.19 	"/>
	<path class="st1" d="M304.02,214.57l-1.55-2.54l-2.49-4.05l-4.97-8.11l-9.94-16.21c-0.71-1.15-1.59-2.11-2.57-2.89
		c-0.37-0.42-0.77-0.74-1.22-0.84c-0.03,0-0.05-0.01-0.07-0.01c-0.99-0.55-7.72-1.45-15.05-2.07l3.02,6.25l-4.61,3.45l1.51,6.18
		l-10.9,31.59l0,0.18l-0.02-0.12l-0.05,0.12l0.04-0.18l-5.67-32.94l2.47-5.85l-3.98-4.15l4.02-5.05l-0.01-0.17
		c-0.82,0.01-1.6,0.02-2.29,0.05c-8.21-4.06-17.37-8.62-18.07-8.78l-18.37-29.87c-5.94,3.61-11.76,7.42-17.44,11.43l20.07,28.76
		c13.01,10.06,19.71,11.47,27.54,14.44c-2.37,20.44-4.57,40.89-6.43,61.36c-0.01,0.16,0.02,0.29,0.01,0.44
		c14.26,1.17,28.54,2.32,42.79,3.49c0.01-0.16,0.07-0.3,0.08-0.45c0.05-0.69,0.09-1.38,0.14-2.07c2.29,1.16,4.59,2.33,6.92,3.42
		l16.59-34.22l0.52-1.07l0.13-0.27l0.06-0.14l0.02-0.03l0.01-0.01C304.31,225.14,304.02,214.57,304.02,214.57z M281.97,225.29
		c0.21-3.68,0.39-7.35,0.59-11.03l1.57,2.88l1.16,2.14L281.97,225.29z"/>
</g>
<g>
	<polygon class="st1" points="257.5,177.14 255.91,183.68 258.32,188.01 261.4,184.12 260.9,177.42 	"/>
	<polygon class="st1" points="256.64,184.61 252.03,224.92 254.84,229.23 258.32,225.41 260.51,184.9 	"/>
</g>
<g>
	<path class="st2" d="M202.12,63.64c-1.65,0-3.29,0-4.94,0c-9.39,0-18.78,0-28.18,0c1.68-0.85-5.59,37.69,13.33,46.99
		c8.58,4.55,12.28,6.15,12.86,9.35c0.82,4.45,0.77,6.06,0.77,6.09c1.18-0.9,2.42-1.78,3.69-2.65c1.29,0.86,2.53,1.74,3.7,2.65
		c0-0.03-0.07-1.64,0.76-6.09c0.57-3.2,4.29-4.8,12.87-9.35c18.91-9.3,11.64-47.84,13.33-46.99
		C220.91,63.64,211.52,63.64,202.12,63.64z"/>
	<path class="st2" d="M220.9,140.11c-3.68-0.99-9.04-3.33-9.04-5.02c0-1.66-5.01-3.33-6.03-6.7c-1-3.33-1.33-17.04-1.33-17.04
		l-4.85,2.12l-4.85-2.12c0,0-0.34,13.71-1.35,17.04c-0.99,3.36-6.02,5.04-6.02,6.7c0,1.69-5.35,4.03-9.03,5.02
		c-3.7,1-3.7,1.69-3.7,3.35c0,1.52,49.86,1.52,49.86,0C224.57,141.8,224.57,141.11,220.9,140.11z"/>
	<rect x="174.68" y="143.11" class="st2" width="49.94" height="7.3"/>
	<rect x="173.05" y="149.04" class="st2" width="53.19" height="3.94"/>
	<g>
		<g>
			<path class="st2" d="M186.57,105.45c-16.71,0-29.98-10.52-33.84-26.81c-1.11-4.01-0.07-6.52,0.99-7.93
				c2.29-3.01,6.29-3.25,7.46-3.25h0.14h38.64h28.17l-0.09,3.06c-0.02,0.46-0.04,0.92-0.07,1.38c-1.04,24.56-20.6,33.29-37.04,33.29
				C189.49,105.35,188.02,105.45,186.57,105.45L186.57,105.45z M161.18,73.4c-1.03,0-2.29,0.29-2.73,0.89c-0.37,0.49-0.37,1.5,0,2.8
				l0.04,0.13c3.17,13.55,14.2,22.29,28.08,22.29c1.26,0,2.56-0.09,3.84-0.22l0.18-0.03h0.35c13.42,0,29.3-6.81,31.01-25.85h-21.97
				h-38.64H161.18L161.18,73.4z"/>
		</g>
		<g>
			<path class="st2" d="M212.73,105.45c-1.46,0-2.93-0.09-4.38-0.25c-16.44,0-36-8.74-37.03-33.36c-0.02-0.39-0.04-0.84-0.06-1.31
				l-0.1-3.06h28.17h38.66h0.12c1.17,0,5.18,0.24,7.47,3.25c1.06,1.41,2.1,3.92,0.98,7.93C242.71,94.93,229.44,105.45,212.73,105.45
				L212.73,105.45z M208.71,99.26l0.18,0.03c1.27,0.16,2.56,0.22,3.84,0.22c13.87,0,24.9-8.74,28.08-22.29l0.03-0.13
				c0.37-1.3,0.37-2.31,0-2.8c-0.45-0.6-1.73-0.89-2.74-0.89h-0.29h-38.49h-21.97c1.76,19.06,17.61,25.85,31,25.85H208.71
				L208.71,99.26z"/>
		</g>
	</g>
</g>
</svg>
